<svg id="Layer_1" data-name="Layer 1" xmlns="http://www.w3.org/2000/svg" viewBox="0 0 1008.79 407"><defs><style>.cls-1{isolation:isolate;}.cls-2{fill:#e23ba2;}.cls-3{fill:#38b5e6;}</style></defs><title>tgViceBlue</title><g class="cls-1"><g class="cls-1"><path class="cls-2" d="M175.5,38.7a9.43,9.43,0,0,1,3.1,7q0,6.6-3.7,9.6t-11.7,2.4q-18-1.39-28.1-1.9t-26.5-.7q-7.39,36.79-13.6,74-2.2,13.6-4.6,31.5t-3.2,28.9a11.26,11.26,0,0,1-4.8,8.9,17.91,17.91,0,0,1-10.6,3.1q-6.6,0-10.2-3.2a10.69,10.69,0,0,1-3.6-8.4A135.86,135.86,0,0,1,59.5,174Q61,162.9,63,150.7q2.2-12.19,3.4-21.2,2.2-15.19,5-30.2T77,70.9q.6-3,1.4-6.9t1.8-8.7q-19.61.6-30.8,3.2T33.5,65.8a16.39,16.39,0,0,0-4.7,12.1,23.59,23.59,0,0,0,4,13,6,6,0,0,1,.8,3q0,3.8-4.5,7.1a15.54,15.54,0,0,1-9.3,3.3,8,8,0,0,1-5.6-2,24.87,24.87,0,0,1-6.6-9.7A37.27,37.27,0,0,1,5,78.3q0-17,11.1-27.3T49.9,35.9q22.7-4.8,58.3-4.8,22,0,35.1.8a193,193,0,0,1,22.9,2.6Q172.4,35.7,175.5,38.7Z" transform="translate(-2 -3.5)"/><path class="cls-2" d="M262.1,158.3a12.41,12.41,0,0,1,1.5,6.6q0,8-3.8,12.4a105.68,105.68,0,0,1-18.9,17.4,37.6,37.6,0,0,1-22.1,6.8q-10.2,0-15.4-5.9t-5.2-17.1q0-5.59,2.8-20,2.59-12.6,2.6-17.4c0-2.13-.74-3.2-2.2-3.2q-2.61,0-7.4,6.7a98.51,98.51,0,0,0-9.6,17.7,143.66,143.66,0,0,0-7.8,23.2q-3.81,16-18.8,16-6,0-7.9-4.3T148,181.7c0-4.27.06-7.67.2-10.2l.2-16a346.45,346.45,0,0,1,6.3-64.2q6.3-33.4,18.6-56.1t29.5-22.7q9.19,0,14.9,7.9t5.7,20.5q0,20.2-11.8,41.9t-38.4,50.7q-.6,10.4-.6,21.4,6.6-17,14.7-27.7t16-15.3q7.89-4.61,14.5-4.6,13,0,13,13,0,7.8-4.4,28.2-3.81,17.4-3.8,23,0,8,5.8,8,4,0,9.5-4.9a163,163,0,0,0,14.7-15.9,7,7,0,0,1,5.4-2.8A4.63,4.63,0,0,1,262.1,158.3ZM190.6,42.6q-4.41,10.31-8.5,27.8a368.87,368.87,0,0,0-6.7,38.1,143.21,143.21,0,0,0,20.5-31.8Q204,59.5,204,45.5c0-4.27-.47-7.53-1.4-9.8s-2.27-3.4-4-3.4Q195,32.3,190.6,42.6Z" transform="translate(-2 -3.5)"/><path class="cls-2" d="M252.2,192.5q-7.41-9-7.4-23.6a64.92,64.92,0,0,1,7.4-30.3,63.16,63.16,0,0,1,19.7-23q12.3-8.7,26.1-8.7,4.39,0,5.9,1.7c1,1.13,1.83,3.17,2.5,6.1a47.21,47.21,0,0,1,8.8-.8q9.8,0,9.8,7,0,4.2-3,20-4.61,23-4.6,32a7.26,7.26,0,0,0,1.5,4.8,4.84,4.84,0,0,0,3.9,1.8q3.79,0,9.2-4.9a172.92,172.92,0,0,0,14.6-15.9,7,7,0,0,1,5.4-2.8,4.63,4.63,0,0,1,4.1,2.4,12.41,12.41,0,0,1,1.5,6.6q0,8-3.8,12.4a101.11,101.11,0,0,1-17.4,17.2q-9.21,7-17.8,7a18.67,18.67,0,0,1-12.1-4.5,27.34,27.34,0,0,1-8.3-12.3q-10.41,16.8-26.2,16.8Q259.6,201.5,252.2,192.5Zm35.4-16.4q4-5.21,5.8-13.8l7.4-36.8a24.19,24.19,0,0,0-15.5,6.3A42.37,42.37,0,0,0,274,147.9a54.19,54.19,0,0,0-4.2,21.2q0,6.19,2.5,9.2a8.48,8.48,0,0,0,6.9,3Q283.6,181.3,287.6,176.1Z" transform="translate(-2 -3.5)"/><path class="cls-2" d="M421.29,158.3a12.41,12.41,0,0,1,1.5,6.6q0,8-3.79,12.4a86,86,0,0,1-18.71,17.4,40.05,40.05,0,0,1-22.89,6.8q-17.61,0-26.11-16t-8.5-41.4q0-24.4,6.3-55.6t18.6-53.6Q380,12.51,397,12.5q9.6,0,15.09,8.9t5.5,25.5q0,23.81-13.19,55.2a306.07,306.07,0,0,1-35.81,62.2q1.41,8.2,4.6,11.7a10.88,10.88,0,0,0,8.4,3.5A23.23,23.23,0,0,0,396,174.8q6.19-4.7,15.79-16.1a7,7,0,0,1,5.4-2.8A4.61,4.61,0,0,1,421.29,158.3ZM382.19,48.9Q376.4,65.51,372,90.1a297.87,297.87,0,0,0-4.81,47.2,257.42,257.42,0,0,0,22.6-46.9q8.41-23.5,8.4-42.9,0-15.2-5.6-15.2Q388,32.3,382.19,48.9Z" transform="translate(-2 -3.5)"/><path class="cls-2" d="M486.49,158.3a12.41,12.41,0,0,1,1.5,6.6q0,8-3.8,12.4a86,86,0,0,1-18.7,17.4,40.08,40.08,0,0,1-22.9,6.8q-17.59,0-26.1-16T408,144.1q0-24.4,6.3-55.6t18.6-53.6q12.3-22.39,29.3-22.4,9.6,0,15.1,8.9t5.5,25.5q0,23.81-13.2,55.2a305.54,305.54,0,0,1-35.8,62.2q1.4,8.2,4.6,11.7a10.85,10.85,0,0,0,8.4,3.5,23.18,23.18,0,0,0,14.4-4.7q6.19-4.7,15.8-16.1a7,7,0,0,1,5.4-2.8A4.63,4.63,0,0,1,486.49,158.3ZM447.39,48.9q-5.81,16.6-10.2,41.2a299,299,0,0,0-4.8,47.2A257.42,257.42,0,0,0,455,90.4q8.4-23.5,8.4-42.9,0-15.2-5.6-15.2Q453.19,32.3,447.39,48.9Z" transform="translate(-2 -3.5)"/><path class="cls-2" d="M565.09,158.3a12.41,12.41,0,0,1,1.5,6.6q0,8-3.8,12.4-7.39,9-20.9,16.6a57.93,57.93,0,0,1-28.9,7.6q-21,0-32.6-11.4t-11.6-31.2a57.82,57.82,0,0,1,5.8-25.7,47.54,47.54,0,0,1,16.1-18.9,40.47,40.47,0,0,1,23.3-7q11.6,0,18.6,6.9t7,18.7a32.34,32.34,0,0,1-9.9,23.7q-9.9,9.9-33.5,15.7,5,9.19,19,9.2,9,0,20.5-6.3a67.66,67.66,0,0,0,19.9-16.5,7,7,0,0,1,5.4-2.8A4.63,4.63,0,0,1,565.09,158.3Zm-67-22.8q-5.1,8.59-5.1,20.8v.4q11.81-2.8,18.6-8.4t6.8-13a8.7,8.7,0,0,0-2.1-6.1,7.35,7.35,0,0,0-5.7-2.3Q503.2,126.9,498.09,135.5Z" transform="translate(-2 -3.5)"/><path class="cls-2" d="M571.69,201.1q-5.51-4.8-5.5-10.8a12.26,12.26,0,0,1,3.8-9q3.79-3.8,11.2-3.8a44.53,44.53,0,0,1,6.1.5c2.33.33,4.1.57,5.3.7a25.87,25.87,0,0,0-2.3-9.8A49.15,49.15,0,0,0,585,160q-3.21-4.31-6-7.5a131.58,131.58,0,0,1-12.3,19.6,147.26,147.26,0,0,1-13.3,14.8c-2.4,2.4-4.94,3.6-7.6,3.6a6.56,6.56,0,0,1-5.2-2.3,8.38,8.38,0,0,1-2-5.7,11.38,11.38,0,0,1,2.8-7.4l2.6-3.2a260.6,260.6,0,0,0,16.6-22.4q3.39-5.81,8-15.5t9-20.1q3.79-8.81,15.8-8.8,5.6,0,7.8,1a3.34,3.34,0,0,1,2.2,3.2,14.84,14.84,0,0,1-.8,3.8,29.64,29.64,0,0,1-2.2,5.2q-3.6,7.2-3.6,12.2a13.31,13.31,0,0,0,2.1,6.6,74.16,74.16,0,0,0,6.5,9,128.28,128.28,0,0,1,9.7,14.3,26,26,0,0,1,3.3,12.9c0,1.33-.14,3.2-.4,5.6q9.79-3.79,23-20.2a7,7,0,0,1,5.4-2.8,4.63,4.63,0,0,1,4.1,2.4,12.41,12.41,0,0,1,1.5,6.6q0,7.6-3.8,12.4-10,12.4-19.1,16.9t-22.5,4.9a28.42,28.42,0,0,1-19,6.8Q577.18,205.9,571.69,201.1Z" transform="translate(-2 -3.5)"/></g></g><g class="cls-1"><g class="cls-1"><path d="M175.5,33.7a9.43,9.43,0,0,1,3.1,7q0,6.6-3.7,9.6t-11.7,2.4q-18-1.39-28.1-1.9t-26.5-.7q-7.39,36.79-13.6,74-2.2,13.6-4.6,31.5t-3.2,28.9a11.26,11.26,0,0,1-4.8,8.9,17.91,17.91,0,0,1-10.6,3.1q-6.6,0-10.2-3.2a10.69,10.69,0,0,1-3.6-8.4A135.86,135.86,0,0,1,59.5,169Q61,157.9,63,145.7q2.2-12.19,3.4-21.2,2.2-15.19,5-30.2T77,65.9q.6-3,1.4-6.9t1.8-8.7q-19.61.6-30.8,3.2T33.5,60.8a16.39,16.39,0,0,0-4.7,12.1,23.59,23.59,0,0,0,4,13,6,6,0,0,1,.8,3q0,3.8-4.5,7.1a15.54,15.54,0,0,1-9.3,3.3,8,8,0,0,1-5.6-2,24.87,24.87,0,0,1-6.6-9.7A37.27,37.27,0,0,1,5,73.3q0-17,11.1-27.3T49.9,30.9q22.7-4.8,58.3-4.8,22,0,35.1.8a193,193,0,0,1,22.9,2.6Q172.4,30.7,175.5,33.7Z" transform="translate(-2 -3.5)"/><path d="M262.1,153.3a12.41,12.41,0,0,1,1.5,6.6q0,8-3.8,12.4a105.68,105.68,0,0,1-18.9,17.4,37.6,37.6,0,0,1-22.1,6.8q-10.2,0-15.4-5.9t-5.2-17.1q0-5.59,2.8-20,2.59-12.6,2.6-17.4c0-2.13-.74-3.2-2.2-3.2q-2.61,0-7.4,6.7a98.51,98.51,0,0,0-9.6,17.7,143.66,143.66,0,0,0-7.8,23.2q-3.81,16-18.8,16-6,0-7.9-4.3T148,176.7c0-4.27.06-7.67.2-10.2l.2-16a346.45,346.45,0,0,1,6.3-64.2q6.3-33.4,18.6-56.1T202.8,7.5q9.19,0,14.9,7.9t5.7,20.5q0,20.2-11.8,41.9t-38.4,50.7q-.6,10.4-.6,21.4,6.6-17,14.7-27.7t16-15.3q7.89-4.61,14.5-4.6,13,0,13,13,0,7.8-4.4,28.2-3.81,17.4-3.8,23,0,8,5.8,8,4,0,9.5-4.9a163,163,0,0,0,14.7-15.9,7,7,0,0,1,5.4-2.8A4.63,4.63,0,0,1,262.1,153.3ZM190.6,37.6q-4.41,10.31-8.5,27.8a368.87,368.87,0,0,0-6.7,38.1,143.21,143.21,0,0,0,20.5-31.8Q204,54.49,204,40.5c0-4.27-.47-7.53-1.4-9.8s-2.27-3.4-4-3.4Q195,27.3,190.6,37.6Z" transform="translate(-2 -3.5)"/><path d="M252.2,187.5q-7.41-9-7.4-23.6a64.92,64.92,0,0,1,7.4-30.3,63.16,63.16,0,0,1,19.7-23q12.3-8.7,26.1-8.7,4.39,0,5.9,1.7c1,1.13,1.83,3.17,2.5,6.1a47.21,47.21,0,0,1,8.8-.8q9.8,0,9.8,7,0,4.2-3,20-4.61,23-4.6,32a7.26,7.26,0,0,0,1.5,4.8,4.84,4.84,0,0,0,3.9,1.8q3.79,0,9.2-4.9a172.92,172.92,0,0,0,14.6-15.9,7,7,0,0,1,5.4-2.8,4.63,4.63,0,0,1,4.1,2.4,12.41,12.41,0,0,1,1.5,6.6q0,8-3.8,12.4a101.11,101.11,0,0,1-17.4,17.2q-9.21,7-17.8,7a18.67,18.67,0,0,1-12.1-4.5,27.34,27.34,0,0,1-8.3-12.3q-10.41,16.8-26.2,16.8Q259.6,196.5,252.2,187.5Zm35.4-16.4q4-5.21,5.8-13.8l7.4-36.8a24.19,24.19,0,0,0-15.5,6.3A42.37,42.37,0,0,0,274,142.9a54.19,54.19,0,0,0-4.2,21.2q0,6.19,2.5,9.2a8.48,8.48,0,0,0,6.9,3Q283.6,176.3,287.6,171.1Z" transform="translate(-2 -3.5)"/><path d="M421.29,153.3a12.41,12.41,0,0,1,1.5,6.6q0,8-3.79,12.4a86,86,0,0,1-18.71,17.4,40.05,40.05,0,0,1-22.89,6.8q-17.61,0-26.11-16t-8.5-41.4q0-24.4,6.3-55.6t18.6-53.6Q380,7.51,397,7.5q9.6,0,15.09,8.9t5.5,25.5q0,23.81-13.19,55.2a306.07,306.07,0,0,1-35.81,62.2q1.41,8.2,4.6,11.7a10.88,10.88,0,0,0,8.4,3.5A23.23,23.23,0,0,0,396,169.8q6.19-4.7,15.79-16.1a7,7,0,0,1,5.4-2.8A4.61,4.61,0,0,1,421.29,153.3ZM382.19,43.9Q376.4,60.51,372,85.1a297.87,297.87,0,0,0-4.81,47.2,257.42,257.42,0,0,0,22.6-46.9q8.41-23.51,8.4-42.9,0-15.2-5.6-15.2Q388,27.3,382.19,43.9Z" transform="translate(-2 -3.5)"/><path d="M486.49,153.3a12.41,12.41,0,0,1,1.5,6.6q0,8-3.8,12.4a86,86,0,0,1-18.7,17.4,40.08,40.08,0,0,1-22.9,6.8q-17.59,0-26.1-16T408,139.1q0-24.4,6.3-55.6t18.6-53.6q12.3-22.39,29.3-22.4,9.6,0,15.1,8.9t5.5,25.5q0,23.81-13.2,55.2a305.54,305.54,0,0,1-35.8,62.2q1.4,8.2,4.6,11.7a10.85,10.85,0,0,0,8.4,3.5,23.18,23.18,0,0,0,14.4-4.7q6.19-4.7,15.8-16.1a7,7,0,0,1,5.4-2.8A4.63,4.63,0,0,1,486.49,153.3ZM447.39,43.9q-5.81,16.6-10.2,41.2a299,299,0,0,0-4.8,47.2A257.42,257.42,0,0,0,455,85.4q8.4-23.51,8.4-42.9,0-15.2-5.6-15.2Q453.19,27.3,447.39,43.9Z" transform="translate(-2 -3.5)"/><path d="M565.09,153.3a12.41,12.41,0,0,1,1.5,6.6q0,8-3.8,12.4-7.39,9-20.9,16.6a57.93,57.93,0,0,1-28.9,7.6q-21,0-32.6-11.4t-11.6-31.2a57.82,57.82,0,0,1,5.8-25.7,47.54,47.54,0,0,1,16.1-18.9,40.47,40.47,0,0,1,23.3-7q11.6,0,18.6,6.9t7,18.7a32.34,32.34,0,0,1-9.9,23.7q-9.9,9.9-33.5,15.7,5,9.19,19,9.2,9,0,20.5-6.3a67.66,67.66,0,0,0,19.9-16.5,7,7,0,0,1,5.4-2.8A4.63,4.63,0,0,1,565.09,153.3Zm-67-22.8q-5.1,8.59-5.1,20.8v.4q11.81-2.8,18.6-8.4t6.8-13a8.7,8.7,0,0,0-2.1-6.1,7.35,7.35,0,0,0-5.7-2.3Q503.2,121.9,498.09,130.5Z" transform="translate(-2 -3.5)"/><path d="M571.69,196.1q-5.51-4.8-5.5-10.8a12.26,12.26,0,0,1,3.8-9q3.79-3.8,11.2-3.8a44.53,44.53,0,0,1,6.1.5c2.33.33,4.1.57,5.3.7a25.87,25.87,0,0,0-2.3-9.8A49.15,49.15,0,0,0,585,155q-3.21-4.31-6-7.5a131.58,131.58,0,0,1-12.3,19.6,147.26,147.26,0,0,1-13.3,14.8c-2.4,2.4-4.94,3.6-7.6,3.6a6.56,6.56,0,0,1-5.2-2.3,8.38,8.38,0,0,1-2-5.7,11.38,11.38,0,0,1,2.8-7.4l2.6-3.2a260.6,260.6,0,0,0,16.6-22.4q3.39-5.81,8-15.5t9-20.1q3.79-8.81,15.8-8.8,5.6,0,7.8,1a3.34,3.34,0,0,1,2.2,3.2,14.84,14.84,0,0,1-.8,3.8,29.64,29.64,0,0,1-2.2,5.2q-3.6,7.2-3.6,12.2a13.31,13.31,0,0,0,2.1,6.6,74.16,74.16,0,0,0,6.5,9,128.28,128.28,0,0,1,9.7,14.3,26,26,0,0,1,3.3,12.9c0,1.33-.14,3.2-.4,5.6q9.79-3.79,23-20.2a7,7,0,0,1,5.4-2.8,4.63,4.63,0,0,1,4.1,2.4,12.41,12.41,0,0,1,1.5,6.6q0,7.6-3.8,12.4-10,12.4-19.1,16.9t-22.5,4.9a28.42,28.42,0,0,1-19,6.8Q577.18,200.9,571.69,196.1Z" transform="translate(-2 -3.5)"/></g></g><g class="cls-1"><g class="cls-1"><path class="cls-3" d="M172.5,29.7a9.43,9.43,0,0,1,3.1,7q0,6.6-3.7,9.6t-11.7,2.4q-18-1.39-28.1-1.9t-26.5-.7q-7.39,36.79-13.6,74-2.2,13.6-4.6,31.5t-3.2,28.9a11.26,11.26,0,0,1-4.8,8.9,17.91,17.91,0,0,1-10.6,3.1q-6.6,0-10.2-3.2a10.69,10.69,0,0,1-3.6-8.4A135.86,135.86,0,0,1,56.5,165Q58,153.9,60,141.7q2.2-12.19,3.4-21.2,2.21-15.19,5-30.2T74,61.9q.6-3,1.4-6.9t1.8-8.7q-19.61.6-30.8,3.2T30.5,56.8a16.39,16.39,0,0,0-4.7,12.1,23.59,23.59,0,0,0,4,13,6,6,0,0,1,.8,3q0,3.8-4.5,7.1a15.54,15.54,0,0,1-9.3,3.3,8,8,0,0,1-5.6-2,24.87,24.87,0,0,1-6.6-9.7A37.27,37.27,0,0,1,2,69.3q0-17,11.1-27.3T46.9,26.9q22.7-4.8,58.3-4.8,22,0,35.1.8a193,193,0,0,1,22.9,2.6Q169.4,26.7,172.5,29.7Z" transform="translate(-2 -3.5)"/><path class="cls-3" d="M259.1,149.3a12.41,12.41,0,0,1,1.5,6.6q0,8-3.8,12.4a105.68,105.68,0,0,1-18.9,17.4,37.6,37.6,0,0,1-22.1,6.8q-10.2,0-15.4-5.9t-5.2-17.1q0-5.59,2.8-20,2.59-12.6,2.6-17.4c0-2.13-.74-3.2-2.2-3.2q-2.61,0-7.4,6.7a98.51,98.51,0,0,0-9.6,17.7,143.66,143.66,0,0,0-7.8,23.2q-3.81,16-18.8,16-6,0-7.9-4.3T145,172.7c0-4.27.06-7.67.2-10.2l.2-16a346.45,346.45,0,0,1,6.3-64.2q6.3-33.4,18.6-56.1T199.8,3.5q9.19,0,14.9,7.9t5.7,20.5q0,20.2-11.8,41.9t-38.4,50.7q-.6,10.4-.6,21.4,6.6-17,14.7-27.7t16-15.3q7.89-4.61,14.5-4.6,13,0,13,13,0,7.8-4.4,28.2-3.81,17.4-3.8,23,0,8,5.8,8,4,0,9.5-4.9a163,163,0,0,0,14.7-15.9,7,7,0,0,1,5.4-2.8A4.63,4.63,0,0,1,259.1,149.3ZM187.6,33.6q-4.41,10.31-8.5,27.8a368.87,368.87,0,0,0-6.7,38.1,143.21,143.21,0,0,0,20.5-31.8Q201,50.49,201,36.5c0-4.27-.47-7.53-1.4-9.8s-2.27-3.4-4-3.4Q192,23.3,187.6,33.6Z" transform="translate(-2 -3.5)"/><path class="cls-3" d="M249.2,183.5q-7.41-9-7.4-23.6a64.92,64.92,0,0,1,7.4-30.3,63.16,63.16,0,0,1,19.7-23q12.3-8.7,26.1-8.7,4.39,0,5.9,1.7c1,1.13,1.83,3.17,2.5,6.1a47.21,47.21,0,0,1,8.8-.8q9.8,0,9.8,7,0,4.2-3,20-4.61,23-4.6,32a7.26,7.26,0,0,0,1.5,4.8,4.84,4.84,0,0,0,3.9,1.8q3.79,0,9.2-4.9a172.92,172.92,0,0,0,14.6-15.9,7,7,0,0,1,5.4-2.8,4.63,4.63,0,0,1,4.1,2.4,12.41,12.41,0,0,1,1.5,6.6q0,8-3.8,12.4a101.11,101.11,0,0,1-17.4,17.2q-9.21,7-17.8,7a18.67,18.67,0,0,1-12.1-4.5,27.34,27.34,0,0,1-8.3-12.3q-10.41,16.8-26.2,16.8Q256.6,192.5,249.2,183.5Zm35.4-16.4q4-5.21,5.8-13.8l7.4-36.8a24.19,24.19,0,0,0-15.5,6.3A42.37,42.37,0,0,0,271,138.9a54.19,54.19,0,0,0-4.2,21.2q0,6.19,2.5,9.2a8.48,8.48,0,0,0,6.9,3Q280.6,172.3,284.6,167.1Z" transform="translate(-2 -3.5)"/><path class="cls-3" d="M418.29,149.3a12.41,12.41,0,0,1,1.5,6.6q0,8-3.79,12.4a86,86,0,0,1-18.71,17.4,40.05,40.05,0,0,1-22.89,6.8q-17.61,0-26.11-16t-8.5-41.4q0-24.4,6.3-55.6t18.6-53.6Q377,3.51,394,3.5q9.6,0,15.09,8.9t5.5,25.5q0,23.81-13.19,55.2a306.07,306.07,0,0,1-35.81,62.2q1.41,8.2,4.6,11.7a10.88,10.88,0,0,0,8.4,3.5A23.23,23.23,0,0,0,393,165.8q6.19-4.7,15.79-16.1a7,7,0,0,1,5.4-2.8A4.61,4.61,0,0,1,418.29,149.3ZM379.19,39.9Q373.4,56.51,369,81.1a297.87,297.87,0,0,0-4.81,47.2,257.42,257.42,0,0,0,22.6-46.9q8.41-23.51,8.4-42.9,0-15.19-5.6-15.2Q385,23.3,379.19,39.9Z" transform="translate(-2 -3.5)"/><path class="cls-3" d="M483.49,149.3a12.41,12.41,0,0,1,1.5,6.6q0,8-3.8,12.4a86,86,0,0,1-18.7,17.4,40.08,40.08,0,0,1-22.9,6.8q-17.59,0-26.1-16T405,135.1q0-24.4,6.3-55.6t18.6-53.6q12.3-22.39,29.3-22.4,9.6,0,15.1,8.9t5.5,25.5q0,23.81-13.2,55.2a305.54,305.54,0,0,1-35.8,62.2q1.4,8.2,4.6,11.7a10.85,10.85,0,0,0,8.4,3.5,23.18,23.18,0,0,0,14.4-4.7q6.19-4.7,15.8-16.1a7,7,0,0,1,5.4-2.8A4.63,4.63,0,0,1,483.49,149.3ZM444.39,39.9q-5.81,16.6-10.2,41.2a299,299,0,0,0-4.8,47.2A257.42,257.42,0,0,0,452,81.4q8.4-23.51,8.4-42.9,0-15.19-5.6-15.2Q450.19,23.3,444.39,39.9Z" transform="translate(-2 -3.5)"/><path class="cls-3" d="M562.09,149.3a12.41,12.41,0,0,1,1.5,6.6q0,8-3.8,12.4-7.39,9-20.9,16.6a57.93,57.93,0,0,1-28.9,7.6q-21,0-32.6-11.4t-11.6-31.2a57.82,57.82,0,0,1,5.8-25.7,47.54,47.54,0,0,1,16.1-18.9,40.47,40.47,0,0,1,23.3-7q11.6,0,18.6,6.9t7,18.7a32.34,32.34,0,0,1-9.9,23.7q-9.9,9.9-33.5,15.7,5,9.19,19,9.2,9,0,20.5-6.3a67.66,67.66,0,0,0,19.9-16.5,7,7,0,0,1,5.4-2.8A4.63,4.63,0,0,1,562.09,149.3Zm-67-22.8q-5.1,8.59-5.1,20.8v.4q11.81-2.8,18.6-8.4t6.8-13a8.7,8.7,0,0,0-2.1-6.1,7.35,7.35,0,0,0-5.7-2.3Q500.2,117.9,495.09,126.5Z" transform="translate(-2 -3.5)"/><path class="cls-3" d="M568.69,192.1q-5.51-4.8-5.5-10.8a12.26,12.26,0,0,1,3.8-9q3.79-3.8,11.2-3.8a44.53,44.53,0,0,1,6.1.5c2.33.33,4.1.57,5.3.7a25.87,25.87,0,0,0-2.3-9.8A49.15,49.15,0,0,0,582,151q-3.21-4.31-6-7.5a131.58,131.58,0,0,1-12.3,19.6,147.26,147.26,0,0,1-13.3,14.8c-2.4,2.4-4.94,3.6-7.6,3.6a6.56,6.56,0,0,1-5.2-2.3,8.38,8.38,0,0,1-2-5.7,11.38,11.38,0,0,1,2.8-7.4l2.6-3.2a260.6,260.6,0,0,0,16.6-22.4q3.39-5.81,8-15.5t9-20.1q3.79-8.81,15.8-8.8,5.6,0,7.8,1a3.34,3.34,0,0,1,2.2,3.2,14.84,14.84,0,0,1-.8,3.8,29.64,29.64,0,0,1-2.2,5.2q-3.6,7.2-3.6,12.2a13.31,13.31,0,0,0,2.1,6.6,74.16,74.16,0,0,0,6.5,9,128.28,128.28,0,0,1,9.7,14.3,26,26,0,0,1,3.3,12.9c0,1.33-.14,3.2-.4,5.6q9.79-3.79,23-20.2a7,7,0,0,1,5.4-2.8,4.63,4.63,0,0,1,4.1,2.4,12.41,12.41,0,0,1,1.5,6.6q0,7.6-3.8,12.4-10,12.4-19.1,16.9t-22.5,4.9a28.42,28.42,0,0,1-19,6.8Q574.18,196.9,568.69,192.1Z" transform="translate(-2 -3.5)"/></g></g><g class="cls-1"><g class="cls-1"><path class="cls-2" d="M573.1,277.8a12.09,12.09,0,0,1,1.5,6.3,15.36,15.36,0,0,1-1.4,7.2,13,13,0,0,1-4.4,4.6q-17.2,11.6-25.2,17.2l-12.8,8.6q-7.6,41.4-19.9,65.1t-31.3,23.7q-10.2,0-16.6-6.3t-6.4-16.5q0-14.2,11.2-30.5t42-40.1l1.2-7.8a24.15,24.15,0,0,1-19.8,11.2q-12.4,0-19.8-9T464,287.9a65,65,0,0,1,7.4-30.3,63.16,63.16,0,0,1,19.7-23q12.3-8.7,26.1-8.7,4.39,0,5.9,1.7c1,1.13,1.83,3.17,2.5,6.1a43.3,43.3,0,0,1,8.8-.8q5,0,7.1,1.5t2.1,5.9a28.78,28.78,0,0,1-.2,3.8q-.79,6.19-5,31.4-.79,4.8-1.7,10.5t-1.9,12.1q15.41-12,29.6-21.2a9,9,0,0,1,4.6-1.6A4.59,4.59,0,0,1,573.1,277.8Zm-80,101.3q6.3-12,12.1-38.2-15.4,13.2-22.2,23.8t-6.8,18.6a10.85,10.85,0,0,0,1.3,5.6,4.6,4.6,0,0,0,4.3,2.2Q486.79,391.1,493.1,379.1Zm14.1-84.4q4.2-5.59,6-16l6.4-34.2q-8.21.19-15.2,6.3a43,43,0,0,0-11.2,16.1,54.19,54.19,0,0,0-4.2,21.2q0,6.19,2.5,9.2a8.5,8.5,0,0,0,6.9,3Q503,300.3,507.2,294.7Z" transform="translate(-2 -3.5)"/><path class="cls-2" d="M565.2,311.5q-7.41-9-7.4-23.6a64.92,64.92,0,0,1,7.4-30.3,63.16,63.16,0,0,1,19.7-23q12.3-8.7,26.1-8.7,4.39,0,5.9,1.7c1,1.13,1.83,3.17,2.5,6.1a47.21,47.21,0,0,1,8.8-.8q9.79,0,9.8,7,0,4.2-3,20-4.61,23-4.6,32a7.26,7.26,0,0,0,1.5,4.8,4.84,4.84,0,0,0,3.9,1.8q3.8,0,9.2-4.9a172.92,172.92,0,0,0,14.6-15.9,7,7,0,0,1,5.4-2.8,4.63,4.63,0,0,1,4.1,2.4,12.41,12.41,0,0,1,1.5,6.6q0,8-3.8,12.4a101.11,101.11,0,0,1-17.4,17.2q-9.21,7-17.8,7a18.67,18.67,0,0,1-12.1-4.5,27.34,27.34,0,0,1-8.3-12.3q-10.41,16.8-26.2,16.8Q572.6,320.5,565.2,311.5Zm35.4-16.4q4-5.21,5.8-13.8l7.4-36.8a24.19,24.19,0,0,0-15.5,6.3A42.37,42.37,0,0,0,587,266.9a54.19,54.19,0,0,0-4.2,21.2q0,6.19,2.5,9.2a8.48,8.48,0,0,0,6.9,3Q596.6,300.3,600.6,295.1Z" transform="translate(-2 -3.5)"/><path class="cls-2" d="M734.3,277.3a12.41,12.41,0,0,1,1.5,6.6q0,8-3.8,12.4a86.23,86.23,0,0,1-18.7,17.4,40.11,40.11,0,0,1-22.9,6.8q-17.61,0-26.1-16t-8.5-41.4q0-24.41,6.3-55.6t18.6-53.6q12.3-22.4,29.3-22.4,9.6,0,15.1,8.9t5.5,25.5q0,23.81-13.2,55.2a306,306,0,0,1-35.8,62.2q1.39,8.2,4.6,11.7a10.85,10.85,0,0,0,8.4,3.5,23.22,23.22,0,0,0,14.4-4.7q6.19-4.69,15.8-16.1a7,7,0,0,1,5.4-2.8A4.63,4.63,0,0,1,734.3,277.3ZM695.2,167.9q-5.81,16.6-10.2,41.2a296.65,296.65,0,0,0-4.8,47.2,258.08,258.08,0,0,0,22.6-46.9q8.4-23.51,8.4-42.9,0-15.19-5.6-15.2Q701,151.3,695.2,167.9Z" transform="translate(-2 -3.5)"/><path class="cls-2" d="M820.59,258.5a5.55,5.55,0,0,1,4.6,2,8.37,8.37,0,0,1,1.6,5.4q0,6.19-2.4,9.7a13.62,13.62,0,0,1-7.2,5.1,62.79,62.79,0,0,1-19.6,3,56.13,56.13,0,0,1-16.6-2.4q-5.79,9.4-12.8,19.4-8,11.4-13.8,15.6a21.91,21.91,0,0,1-13.2,4.2,15.12,15.12,0,0,1-12.9-6.4q-4.69-6.41-5.9-20.2-2.4-28-2.4-49v-7c.14-4.4,1.33-7.47,3.6-9.2s5.67-2.6,10.2-2.6c3.47,0,6,.77,7.7,2.3s2.5,4.1,2.5,7.7q0,23,2.8,59.8,12-17.81,18-28.4a29.7,29.7,0,0,1-3-13.8,30.79,30.79,0,0,1,3-13.2,27.75,27.75,0,0,1,8.2-10.4,18.83,18.83,0,0,1,11.8-4,11.92,11.92,0,0,1,9.4,4.1q3.6,4.1,3.6,11.9,0,9-4.8,20.6a143.34,143.34,0,0,0,20.2-3l5.4-1A7.16,7.16,0,0,1,820.59,258.5Z" transform="translate(-2 -3.5)"/><path class="cls-2" d="M814.19,311.5q-7.4-9-7.4-23.6a65,65,0,0,1,7.4-30.3,63.16,63.16,0,0,1,19.7-23q12.3-8.7,26.1-8.7,4.39,0,5.9,1.7c1,1.13,1.83,3.17,2.5,6.1a47.21,47.21,0,0,1,8.8-.8q9.79,0,9.8,7,0,4.2-3,20-4.61,23-4.6,32a7.26,7.26,0,0,0,1.5,4.8,4.84,4.84,0,0,0,3.9,1.8q3.8,0,9.2-4.9a171.49,171.49,0,0,0,14.6-15.9,7,7,0,0,1,5.4-2.8,4.63,4.63,0,0,1,4.1,2.4,12.41,12.41,0,0,1,1.5,6.6q0,8-3.8,12.4a101.11,101.11,0,0,1-17.4,17.2q-9.2,7-17.8,7a18.68,18.68,0,0,1-12.1-4.5,27.42,27.42,0,0,1-8.3-12.3q-10.4,16.8-26.2,16.8Q821.59,320.5,814.19,311.5Zm61.6-99.5a38.85,38.85,0,0,1-7.2-4.1l-21.4-14.8-8.8,12.6a10.48,10.48,0,0,1-9,4.4,9.17,9.17,0,0,1-6.1-2.1,7,7,0,0,1-2.5-5.7q0-4.61,7.4-15.4a39.25,39.25,0,0,1,9-9.7,16.28,16.28,0,0,1,9.6-3.1,17.38,17.38,0,0,1,6.1,1,32.62,32.62,0,0,1,7.1,4.2l21.4,14.8,8.8-12.6a10.48,10.48,0,0,1,9-4.4,9.17,9.17,0,0,1,6.1,2.1,7,7,0,0,1,2.5,5.7,13.42,13.42,0,0,1-1.9,6.3q-1.9,3.5-5.5,9.1a39.25,39.25,0,0,1-9,9.7,16.6,16.6,0,0,1-15.6,2Zm-26.2,83.1q4-5.21,5.8-13.8l7.4-36.8a24.19,24.19,0,0,0-15.5,6.3A42.48,42.48,0,0,0,836,266.9a54.19,54.19,0,0,0-4.2,21.2q0,6.19,2.5,9.2a8.5,8.5,0,0,0,6.9,3Q845.59,300.3,849.59,295.1Z" transform="translate(-2 -3.5)"/><path class="cls-2" d="M1009.39,260.7a13.85,13.85,0,0,1,1.4,6.6q0,9.6-5.8,11.4a91.06,91.06,0,0,1-26.4,4.8q-3.81,16.8-15,26.9t-25.4,10.1q-12,0-20.5-5.8a36.81,36.81,0,0,1-12.9-15.4,49.21,49.21,0,0,1-4.4-20.8,61,61,0,0,1,5.8-27.1,45.56,45.56,0,0,1,16-18.6,40.26,40.26,0,0,1,22.6-6.7q15.19,0,24.5,10.5t10.9,25.9a120.94,120.94,0,0,0,22.4-4,11.54,11.54,0,0,1,2.8-.4A4.37,4.37,0,0,1,1009.39,260.7Zm-58.5,33.4q4.7-5.21,6.3-15a27.58,27.58,0,0,1-9.5-11,32.54,32.54,0,0,1-3.3-14.4,34.66,34.66,0,0,1,.6-6.4h-1q-8,0-13.3,7.7t-5.3,21.7q0,11,4.3,16.8t10.1,5.8A14.51,14.51,0,0,0,950.89,294.1Z" transform="translate(-2 -3.5)"/></g></g><g class="cls-1"><g class="cls-1"><path d="M573.1,272.8a12.09,12.09,0,0,1,1.5,6.3,15.36,15.36,0,0,1-1.4,7.2,13,13,0,0,1-4.4,4.6q-17.2,11.6-25.2,17.2l-12.8,8.6q-7.6,41.4-19.9,65.1t-31.3,23.7q-10.2,0-16.6-6.3t-6.4-16.5q0-14.2,11.2-30.5t42-40.1l1.2-7.8a24.15,24.15,0,0,1-19.8,11.2q-12.4,0-19.8-9T464,282.9a65,65,0,0,1,7.4-30.3,63.16,63.16,0,0,1,19.7-23q12.3-8.7,26.1-8.7,4.39,0,5.9,1.7c1,1.13,1.83,3.17,2.5,6.1a43.3,43.3,0,0,1,8.8-.8q5,0,7.1,1.5t2.1,5.9a28.78,28.78,0,0,1-.2,3.8q-.79,6.19-5,31.4-.79,4.8-1.7,10.5t-1.9,12.1q15.41-12,29.6-21.2a9,9,0,0,1,4.6-1.6A4.59,4.59,0,0,1,573.1,272.8Zm-80,101.3q6.3-12,12.1-38.2-15.4,13.2-22.2,23.8t-6.8,18.6a10.85,10.85,0,0,0,1.3,5.6,4.6,4.6,0,0,0,4.3,2.2Q486.79,386.1,493.1,374.1Zm14.1-84.4q4.2-5.59,6-16l6.4-34.2q-8.21.19-15.2,6.3a43,43,0,0,0-11.2,16.1,54.19,54.19,0,0,0-4.2,21.2q0,6.19,2.5,9.2a8.5,8.5,0,0,0,6.9,3Q503,295.3,507.2,289.7Z" transform="translate(-2 -3.5)"/><path d="M565.2,306.5q-7.41-9-7.4-23.6a64.92,64.92,0,0,1,7.4-30.3,63.16,63.16,0,0,1,19.7-23q12.3-8.7,26.1-8.7,4.39,0,5.9,1.7c1,1.13,1.83,3.17,2.5,6.1a47.21,47.21,0,0,1,8.8-.8q9.79,0,9.8,7,0,4.2-3,20-4.61,23-4.6,32a7.26,7.26,0,0,0,1.5,4.8,4.84,4.84,0,0,0,3.9,1.8q3.8,0,9.2-4.9a172.92,172.92,0,0,0,14.6-15.9,7,7,0,0,1,5.4-2.8,4.63,4.63,0,0,1,4.1,2.4,12.41,12.41,0,0,1,1.5,6.6q0,8-3.8,12.4a101.11,101.11,0,0,1-17.4,17.2q-9.21,7-17.8,7a18.67,18.67,0,0,1-12.1-4.5,27.34,27.34,0,0,1-8.3-12.3q-10.41,16.8-26.2,16.8Q572.6,315.5,565.2,306.5Zm35.4-16.4q4-5.21,5.8-13.8l7.4-36.8a24.19,24.19,0,0,0-15.5,6.3A42.37,42.37,0,0,0,587,261.9a54.19,54.19,0,0,0-4.2,21.2q0,6.19,2.5,9.2a8.48,8.48,0,0,0,6.9,3Q596.6,295.3,600.6,290.1Z" transform="translate(-2 -3.5)"/><path d="M734.3,272.3a12.41,12.41,0,0,1,1.5,6.6q0,8-3.8,12.4a86.23,86.23,0,0,1-18.7,17.4,40.11,40.11,0,0,1-22.9,6.8q-17.61,0-26.1-16t-8.5-41.4q0-24.41,6.3-55.6t18.6-53.6q12.3-22.4,29.3-22.4,9.6,0,15.1,8.9t5.5,25.5q0,23.81-13.2,55.2a306,306,0,0,1-35.8,62.2q1.39,8.2,4.6,11.7a10.85,10.85,0,0,0,8.4,3.5,23.22,23.22,0,0,0,14.4-4.7q6.19-4.69,15.8-16.1a7,7,0,0,1,5.4-2.8A4.63,4.63,0,0,1,734.3,272.3ZM695.2,162.9q-5.81,16.6-10.2,41.2a296.65,296.65,0,0,0-4.8,47.2,258.08,258.08,0,0,0,22.6-46.9q8.4-23.51,8.4-42.9,0-15.19-5.6-15.2Q701,146.3,695.2,162.9Z" transform="translate(-2 -3.5)"/><path d="M820.59,253.5a5.55,5.55,0,0,1,4.6,2,8.37,8.37,0,0,1,1.6,5.4q0,6.19-2.4,9.7a13.62,13.62,0,0,1-7.2,5.1,62.79,62.79,0,0,1-19.6,3,56.13,56.13,0,0,1-16.6-2.4q-5.79,9.4-12.8,19.4-8,11.4-13.8,15.6a21.91,21.91,0,0,1-13.2,4.2,15.12,15.12,0,0,1-12.9-6.4q-4.69-6.41-5.9-20.2-2.4-28-2.4-49v-7c.14-4.4,1.33-7.47,3.6-9.2s5.67-2.6,10.2-2.6c3.47,0,6,.77,7.7,2.3s2.5,4.1,2.5,7.7q0,23,2.8,59.8,12-17.81,18-28.4a29.7,29.7,0,0,1-3-13.8,30.79,30.79,0,0,1,3-13.2,27.75,27.75,0,0,1,8.2-10.4,18.83,18.83,0,0,1,11.8-4,11.92,11.92,0,0,1,9.4,4.1q3.6,4.1,3.6,11.9,0,9-4.8,20.6a143.34,143.34,0,0,0,20.2-3l5.4-1A7.16,7.16,0,0,1,820.59,253.5Z" transform="translate(-2 -3.5)"/><path d="M814.19,306.5q-7.4-9-7.4-23.6a65,65,0,0,1,7.4-30.3,63.16,63.16,0,0,1,19.7-23q12.3-8.7,26.1-8.7,4.39,0,5.9,1.7c1,1.13,1.83,3.17,2.5,6.1a47.21,47.21,0,0,1,8.8-.8q9.79,0,9.8,7,0,4.2-3,20-4.61,23-4.6,32a7.26,7.26,0,0,0,1.5,4.8,4.84,4.84,0,0,0,3.9,1.8q3.8,0,9.2-4.9a171.49,171.49,0,0,0,14.6-15.9,7,7,0,0,1,5.4-2.8,4.63,4.63,0,0,1,4.1,2.4,12.41,12.41,0,0,1,1.5,6.6q0,8-3.8,12.4a101.11,101.11,0,0,1-17.4,17.2q-9.2,7-17.8,7a18.68,18.68,0,0,1-12.1-4.5,27.42,27.42,0,0,1-8.3-12.3q-10.4,16.8-26.2,16.8Q821.59,315.5,814.19,306.5Zm61.6-99.5a38.85,38.85,0,0,1-7.2-4.1l-21.4-14.8-8.8,12.6a10.48,10.48,0,0,1-9,4.4,9.17,9.17,0,0,1-6.1-2.1,7,7,0,0,1-2.5-5.7q0-4.61,7.4-15.4a39.25,39.25,0,0,1,9-9.7,16.28,16.28,0,0,1,9.6-3.1,17.38,17.38,0,0,1,6.1,1,32.62,32.62,0,0,1,7.1,4.2l21.4,14.8,8.8-12.6a10.48,10.48,0,0,1,9-4.4,9.17,9.17,0,0,1,6.1,2.1,7,7,0,0,1,2.5,5.7,13.42,13.42,0,0,1-1.9,6.3q-1.9,3.5-5.5,9.1a39.25,39.25,0,0,1-9,9.7,16.6,16.6,0,0,1-15.6,2Zm-26.2,83.1q4-5.21,5.8-13.8l7.4-36.8a24.19,24.19,0,0,0-15.5,6.3A42.48,42.48,0,0,0,836,261.9a54.19,54.19,0,0,0-4.2,21.2q0,6.19,2.5,9.2a8.5,8.5,0,0,0,6.9,3Q845.59,295.3,849.59,290.1Z" transform="translate(-2 -3.5)"/><path d="M1009.39,255.7a13.85,13.85,0,0,1,1.4,6.6q0,9.6-5.8,11.4a91.06,91.06,0,0,1-26.4,4.8q-3.81,16.8-15,26.9t-25.4,10.1q-12,0-20.5-5.8a36.81,36.81,0,0,1-12.9-15.4,49.21,49.21,0,0,1-4.4-20.8,61,61,0,0,1,5.8-27.1,45.56,45.56,0,0,1,16-18.6,40.26,40.26,0,0,1,22.6-6.7q15.19,0,24.5,10.5t10.9,25.9a120.94,120.94,0,0,0,22.4-4,11.54,11.54,0,0,1,2.8-.4A4.37,4.37,0,0,1,1009.39,255.7Zm-58.5,33.4q4.7-5.21,6.3-15a27.58,27.58,0,0,1-9.5-11,32.54,32.54,0,0,1-3.3-14.4,34.66,34.66,0,0,1,.6-6.4h-1q-8,0-13.3,7.7t-5.3,21.7q0,11,4.3,16.8t10.1,5.8A14.51,14.51,0,0,0,950.89,289.1Z" transform="translate(-2 -3.5)"/></g></g><g class="cls-1"><g class="cls-1"><path class="cls-3" d="M570.1,268.8a12.09,12.09,0,0,1,1.5,6.3,15.36,15.36,0,0,1-1.4,7.2,13,13,0,0,1-4.4,4.6q-17.2,11.6-25.2,17.2l-12.8,8.6q-7.6,41.4-19.9,65.1t-31.3,23.7q-10.2,0-16.6-6.3t-6.4-16.5q0-14.2,11.2-30.5t42-40.1l1.2-7.8a24.15,24.15,0,0,1-19.8,11.2q-12.4,0-19.8-9T461,278.9a65,65,0,0,1,7.4-30.3,63.16,63.16,0,0,1,19.7-23q12.3-8.7,26.1-8.7,4.39,0,5.9,1.7c1,1.13,1.83,3.17,2.5,6.1a43.3,43.3,0,0,1,8.8-.8q5,0,7.1,1.5t2.1,5.9a28.78,28.78,0,0,1-.2,3.8q-.79,6.19-5,31.4-.79,4.8-1.7,10.5t-1.9,12.1q15.41-12,29.6-21.2a9,9,0,0,1,4.6-1.6A4.59,4.59,0,0,1,570.1,268.8Zm-80,101.3q6.3-12,12.1-38.2-15.4,13.2-22.2,23.8t-6.8,18.6a10.85,10.85,0,0,0,1.3,5.6,4.6,4.6,0,0,0,4.3,2.2Q483.79,382.1,490.1,370.1Zm14.1-84.4q4.2-5.59,6-16l6.4-34.2q-8.21.19-15.2,6.3a43,43,0,0,0-11.2,16.1,54.19,54.19,0,0,0-4.2,21.2q0,6.19,2.5,9.2a8.5,8.5,0,0,0,6.9,3Q500,291.3,504.2,285.7Z" transform="translate(-2 -3.5)"/><path class="cls-3" d="M562.2,302.5q-7.41-9-7.4-23.6a64.92,64.92,0,0,1,7.4-30.3,63.16,63.16,0,0,1,19.7-23q12.3-8.7,26.1-8.7,4.39,0,5.9,1.7c1,1.13,1.83,3.17,2.5,6.1a47.21,47.21,0,0,1,8.8-.8q9.79,0,9.8,7,0,4.2-3,20-4.61,23-4.6,32a7.26,7.26,0,0,0,1.5,4.8,4.84,4.84,0,0,0,3.9,1.8q3.8,0,9.2-4.9a172.92,172.92,0,0,0,14.6-15.9,7,7,0,0,1,5.4-2.8,4.63,4.63,0,0,1,4.1,2.4,12.41,12.41,0,0,1,1.5,6.6q0,8-3.8,12.4a101.11,101.11,0,0,1-17.4,17.2q-9.21,7-17.8,7a18.67,18.67,0,0,1-12.1-4.5,27.34,27.34,0,0,1-8.3-12.3q-10.41,16.8-26.2,16.8Q569.6,311.5,562.2,302.5Zm35.4-16.4q4-5.21,5.8-13.8l7.4-36.8a24.19,24.19,0,0,0-15.5,6.3A42.37,42.37,0,0,0,584,257.9a54.19,54.19,0,0,0-4.2,21.2q0,6.19,2.5,9.2a8.48,8.48,0,0,0,6.9,3Q593.6,291.3,597.6,286.1Z" transform="translate(-2 -3.5)"/><path class="cls-3" d="M731.3,268.3a12.41,12.41,0,0,1,1.5,6.6q0,8-3.8,12.4a86.23,86.23,0,0,1-18.7,17.4,40.11,40.11,0,0,1-22.9,6.8q-17.61,0-26.1-16t-8.5-41.4q0-24.4,6.3-55.6t18.6-53.6q12.3-22.4,29.3-22.4,9.6,0,15.1,8.9t5.5,25.5q0,23.81-13.2,55.2a306,306,0,0,1-35.8,62.2q1.39,8.2,4.6,11.7a10.85,10.85,0,0,0,8.4,3.5,23.22,23.22,0,0,0,14.4-4.7q6.19-4.69,15.8-16.1a7,7,0,0,1,5.4-2.8A4.63,4.63,0,0,1,731.3,268.3ZM692.2,158.9q-5.81,16.6-10.2,41.2a296.65,296.65,0,0,0-4.8,47.2,258.08,258.08,0,0,0,22.6-46.9q8.4-23.51,8.4-42.9,0-15.19-5.6-15.2Q698,142.3,692.2,158.9Z" transform="translate(-2 -3.5)"/><path class="cls-3" d="M817.59,249.5a5.55,5.55,0,0,1,4.6,2,8.37,8.37,0,0,1,1.6,5.4q0,6.19-2.4,9.7a13.62,13.62,0,0,1-7.2,5.1,62.79,62.79,0,0,1-19.6,3,56.13,56.13,0,0,1-16.6-2.4q-5.79,9.4-12.8,19.4-8,11.4-13.8,15.6a21.91,21.91,0,0,1-13.2,4.2,15.12,15.12,0,0,1-12.9-6.4q-4.69-6.41-5.9-20.2-2.4-28-2.4-49v-7c.14-4.4,1.33-7.47,3.6-9.2s5.67-2.6,10.2-2.6c3.47,0,6,.77,7.7,2.3s2.5,4.1,2.5,7.7q0,23,2.8,59.8,12-17.81,18-28.4a29.7,29.7,0,0,1-3-13.8,30.79,30.79,0,0,1,3-13.2,27.75,27.75,0,0,1,8.2-10.4,18.83,18.83,0,0,1,11.8-4,11.92,11.92,0,0,1,9.4,4.1q3.6,4.1,3.6,11.9,0,9-4.8,20.6a143.34,143.34,0,0,0,20.2-3l5.4-1A7.16,7.16,0,0,1,817.59,249.5Z" transform="translate(-2 -3.5)"/><path class="cls-3" d="M811.19,302.5q-7.4-9-7.4-23.6a65,65,0,0,1,7.4-30.3,63.16,63.16,0,0,1,19.7-23q12.3-8.7,26.1-8.7,4.39,0,5.9,1.7c1,1.13,1.83,3.17,2.5,6.1a47.21,47.21,0,0,1,8.8-.8q9.79,0,9.8,7,0,4.2-3,20-4.61,23-4.6,32a7.26,7.26,0,0,0,1.5,4.8,4.84,4.84,0,0,0,3.9,1.8q3.8,0,9.2-4.9a171.49,171.49,0,0,0,14.6-15.9,7,7,0,0,1,5.4-2.8,4.63,4.63,0,0,1,4.1,2.4,12.41,12.41,0,0,1,1.5,6.6q0,8-3.8,12.4a101.11,101.11,0,0,1-17.4,17.2q-9.2,7-17.8,7a18.68,18.68,0,0,1-12.1-4.5,27.42,27.42,0,0,1-8.3-12.3q-10.4,16.8-26.2,16.8Q818.59,311.5,811.19,302.5Zm61.6-99.5a38.85,38.85,0,0,1-7.2-4.1l-21.4-14.8-8.8,12.6a10.48,10.48,0,0,1-9,4.4,9.17,9.17,0,0,1-6.1-2.1,7,7,0,0,1-2.5-5.7q0-4.61,7.4-15.4a39.25,39.25,0,0,1,9-9.7,16.28,16.28,0,0,1,9.6-3.1,17.38,17.38,0,0,1,6.1,1,32.62,32.62,0,0,1,7.1,4.2l21.4,14.8,8.8-12.6a10.48,10.48,0,0,1,9-4.4,9.17,9.17,0,0,1,6.1,2.1,7,7,0,0,1,2.5,5.7,13.42,13.42,0,0,1-1.9,6.3q-1.9,3.5-5.5,9.1a39.25,39.25,0,0,1-9,9.7,16.6,16.6,0,0,1-15.6,2Zm-26.2,83.1q4-5.21,5.8-13.8l7.4-36.8a24.19,24.19,0,0,0-15.5,6.3A42.48,42.48,0,0,0,833,257.9a54.19,54.19,0,0,0-4.2,21.2q0,6.19,2.5,9.2a8.5,8.5,0,0,0,6.9,3Q842.59,291.3,846.59,286.1Z" transform="translate(-2 -3.5)"/><path class="cls-3" d="M1006.39,251.7a13.85,13.85,0,0,1,1.4,6.6q0,9.6-5.8,11.4a91.06,91.06,0,0,1-26.4,4.8q-3.81,16.8-15,26.9t-25.4,10.1q-12,0-20.5-5.8a36.81,36.81,0,0,1-12.9-15.4,49.21,49.21,0,0,1-4.4-20.8,61,61,0,0,1,5.8-27.1,45.56,45.56,0,0,1,16-18.6,40.26,40.26,0,0,1,22.6-6.7q15.19,0,24.5,10.5t10.9,25.9a120.94,120.94,0,0,0,22.4-4,11.54,11.54,0,0,1,2.8-.4A4.37,4.37,0,0,1,1006.39,251.7Zm-58.5,33.4q4.7-5.21,6.3-15a27.58,27.58,0,0,1-9.5-11,32.54,32.54,0,0,1-3.3-14.4,34.66,34.66,0,0,1,.6-6.4h-1q-8,0-13.3,7.7t-5.3,21.7q0,11,4.3,16.8t10.1,5.8A14.51,14.51,0,0,0,947.89,285.1Z" transform="translate(-2 -3.5)"/></g></g></svg>